<?xml version="1.0" standalone="no"?>
<!DOCTYPE svg PUBLIC "-//W3C//DTD SVG 20010904//EN"
 "http://www.w3.org/TR/2001/REC-SVG-20010904/DTD/svg10.dtd">
<svg version="1.0" xmlns="http://www.w3.org/2000/svg"
 width="512.000000pt" height="512.000000pt" viewBox="0 0 512.000000 512.000000"
 preserveAspectRatio="xMidYMid meet">

<g transform="translate(0.000000,512.000000) scale(0.100000,-0.100000)"
fill="#000000" stroke="none">
<path d="M3895 2335 c-82 -14 -134 -35 -155 -60 -14 -17 -13 -18 4 -12 166 63
337 5 424 -143 24 -40 27 -55 27 -135 0 -85 -2 -96 -39 -169 -29 -60 -59 -99
-125 -165 -85 -86 -261 -213 -363 -262 -27 -13 -48 -27 -48 -31 0 -11 -3 -12
127 31 231 76 406 174 519 293 75 78 108 134 130 218 30 117 1 222 -86 314
-99 105 -250 149 -415 121z"/>
<path d="M1794 2289 c-300 -27 -744 -185 -744 -265 0 -20 56 -61 107 -78 73
-24 174 -43 333 -63 208 -26 954 -26 1210 0 357 36 640 88 725 134 27 15 74
40 105 56 30 16 44 26 30 23 -48 -10 -376 -56 -505 -71 -198 -22 -371 -34
-696 -45 -530 -19 -903 14 -940 81 -9 17 -5 26 25 54 43 41 141 82 321 135 77
23 145 43 150 45 14 5 -17 3 -121 -6z"/>
<path d="M1604 1660 c-84 -41 -144 -95 -144 -130 0 -32 56 -85 119 -114 149
-67 341 -96 671 -103 285 -6 491 9 742 52 135 24 382 81 402 93 5 3 -13 16
-40 30 -27 13 -68 40 -92 59 l-43 35 -187 -31 c-308 -50 -378 -56 -682 -56
-409 0 -610 23 -666 76 -29 27 -30 54 -4 97 11 17 16 32 12 32 -4 0 -44 -18
-88 -40z"/>
<path d="M1789 1135 c-106 -39 -169 -91 -169 -141 0 -89 181 -179 456 -226
105 -17 170 -22 349 -22 223 -1 312 7 498 45 101 20 294 76 360 104 l38 16
-133 67 -133 67 -160 -27 c-247 -41 -438 -53 -635 -39 -386 27 -494 61 -448
141 9 17 16 30 15 29 -1 0 -18 -6 -38 -14z"/>
<path d="M1143 759 c-238 -50 -476 -172 -497 -254 -23 -92 129 -138 659 -199
419 -49 1022 -69 1405 -47 594 34 1069 123 1327 247 148 71 185 151 98 208
-26 17 -26 17 -16 -3 40 -74 -45 -147 -232 -196 -177 -47 -480 -88 -862 -117
-233 -17 -1131 -17 -1325 0 -293 26 -505 63 -644 112 -67 23 -96 44 -96 71 0
29 68 77 155 108 83 30 254 70 302 72 25 0 26 1 8 9 -35 15 -187 9 -282 -11z"/>
<path d="M4375 438 c-102 -96 -403 -198 -770 -262 -370 -63 -635 -86 -1105
-93 -413 -6 -668 4 -965 38 -93 10 -172 19 -175 19 -17 -2 78 -34 145 -50 424
-101 1411 -113 2030 -24 473 67 779 193 855 350 12 25 21 46 19 48 -2 1 -17
-11 -34 -26z"/>
</g>
</svg>
